<svg width="43" height="35" viewBox="0 0 43 35" fill="none" xmlns="http://www.w3.org/2000/svg">
    <mask id="mask0_1_182" style="mask-type:luminance" maskUnits="userSpaceOnUse" x="0" y="0"
        width="43" height="35">
        <path d="M42.2785 0H0.461365V34.171H42.2785V0Z" fill="white" />
    </mask>
    <g mask="url(#mask0_1_182)">
        <path
            d="M21.3795 34.171H21.3647C21.2483 34.171 21.1283 34.167 21.012 34.1598C20.888 34.1521 20.7645 34.1409 20.6445 34.1257C20.5246 34.1104 20.4006 34.092 20.2806 34.0731C20.2735 34.0702 20.2658 34.069 20.2582 34.0695C20.1454 34.047 20.0327 34.021 19.9204 33.9945C19.7411 33.9542 19.5645 33.9029 19.3915 33.8408H19.3876C19.2114 33.7806 19.0425 33.7132 18.8736 33.6382C18.8174 33.6117 18.7613 33.5893 18.7087 33.558C18.6562 33.5267 18.596 33.5054 18.5434 33.4777L18.5398 33.4741C18.4836 33.444 18.4311 33.4139 18.3793 33.3838C18.3276 33.3538 18.2706 33.3241 18.2188 33.2904C18.125 33.2338 18.0311 33.1776 17.9412 33.1174C17.7216 32.9664 17.5111 32.8023 17.3109 32.6264C17.2507 32.5738 17.1982 32.5249 17.142 32.4687C17.1047 32.435 17.071 32.4009 17.0333 32.3636C16.9659 32.2962 16.8981 32.2248 16.8327 32.1533C16.7673 32.0819 16.7055 32.0073 16.6417 31.9323C16.5779 31.8573 16.5177 31.7822 16.4616 31.7032C16.4054 31.6242 16.3452 31.5427 16.2891 31.4593L16.1538 31.2587L16.1089 31.1909C15.5373 30.2336 15.2352 29.1395 15.2347 28.0246C15.2328 26.8032 15.5988 25.6097 16.285 24.5995L21.2483 17.2394L21.3723 17.0592L21.5484 16.7964L24.5647 12.321L30.7585 3.14105C30.7603 3.13695 30.7627 3.13316 30.7657 3.12982L31.0546 2.70214C31.4967 2.01445 32.0718 1.42203 32.7461 0.959636C33.4203 0.49724 34.1801 0.17419 34.9809 0.00945492C35.7817 -0.15528 36.6074 -0.158374 37.4094 0.000333287C38.2114 0.15904 38.9736 0.476357 39.6513 0.933666C40.3291 1.39097 40.9084 1.97906 41.3558 2.66339C41.8031 3.34773 42.1092 4.11454 42.2561 4.91879C42.4033 5.72304 42.3881 6.54852 42.2116 7.34684C42.035 8.14515 41.7008 8.90014 41.2286 9.56754L31.6399 23.7818C31.6363 23.7854 31.6363 23.7894 31.6323 23.7931L28.9916 27.7096L26.5117 31.3858C26.5005 31.4011 26.4929 31.4123 26.4853 31.4236C26.4788 31.4374 26.47 31.4501 26.4592 31.4609V31.4649C26.3842 31.5736 26.3055 31.6787 26.2265 31.7798C26.2175 31.7985 26.2049 31.8152 26.1892 31.8288C26.1366 31.9002 26.0764 31.9712 26.0166 32.0386C25.9227 32.1513 25.8213 32.2601 25.7166 32.3652L25.7089 32.3728C25.6287 32.453 25.5512 32.5265 25.4682 32.6015C25.4345 32.628 25.4008 32.6577 25.3671 32.6878C25.3069 32.7439 25.2431 32.7929 25.1793 32.8418C25.1625 32.859 25.1436 32.8741 25.1232 32.8868C25.0632 32.9363 25.0006 32.9826 24.9358 33.0256C24.8957 33.0589 24.8531 33.0889 24.8082 33.1154C24.8082 33.119 24.8042 33.119 24.8042 33.119C24.5998 33.2556 24.3882 33.381 24.1703 33.4946C24.0728 33.5431 23.9717 33.5921 23.8738 33.637C23.8702 33.637 23.8702 33.6406 23.8666 33.6406C23.7539 33.6896 23.6451 33.7345 23.5328 33.7758C23.4205 33.8171 23.3001 33.8585 23.1801 33.8962C23.0602 33.9339 22.9438 33.9636 22.8275 33.9937C22.7111 34.0238 22.5984 34.0462 22.4861 34.0687C22.4724 34.0693 22.4589 34.0719 22.4459 34.0763C22.3296 34.0952 22.2172 34.1136 22.1009 34.1249C21.9846 34.1361 21.8569 34.1513 21.733 34.159C21.6158 34.167 21.4999 34.171 21.3795 34.171Z"
            fill="url(#paint0_linear_1_182)" />
        <g style="mix-blend-mode:multiply" opacity="0.1">
            <path
                d="M21.3795 34.171H21.3647C21.2483 34.171 21.1283 34.1669 21.012 34.1597C20.888 34.1521 20.7645 34.1409 20.6445 34.1256C20.5246 34.1104 20.4006 34.0919 20.2806 34.073C20.2735 34.0702 20.2658 34.0689 20.2582 34.0695C20.1454 34.047 20.0327 34.0209 19.9204 33.9944C19.7411 33.9542 19.5645 33.9029 19.3915 33.8408H19.3876C19.2114 33.7806 19.0425 33.7132 18.8736 33.6382C18.8174 33.6117 18.7613 33.5892 18.7087 33.5579C18.6562 33.5266 18.596 33.5054 18.5434 33.4777L18.5398 33.4741C18.4836 33.444 18.4311 33.4139 18.3793 33.3838C18.3276 33.3537 18.2706 33.324 18.2188 33.2903C18.125 33.2338 18.0311 33.1776 17.9412 33.1174C17.7216 32.9663 17.5111 32.8023 17.3109 32.6263C17.2507 32.5738 17.1982 32.5248 17.142 32.4686C17.1047 32.4349 17.071 32.4009 17.0333 32.3636C16.9659 32.2962 16.8981 32.2247 16.8327 32.1533C16.7673 32.0819 16.7055 32.0072 16.6417 31.9322C16.5779 31.8572 16.5177 31.7822 16.4616 31.7032C16.4054 31.6241 16.3452 31.5427 16.2891 31.4592L16.1538 31.2586L16.1089 31.1908C15.5373 30.2335 15.2352 29.1395 15.2347 28.0245C15.2328 26.8032 15.5988 25.6097 16.285 24.5994L21.2483 17.2394L21.3723 17.0592L21.5484 16.7964L24.5647 12.321L24.6734 12.7037L28.9916 27.7088L26.5117 31.385C26.5005 31.4003 26.4929 31.4115 26.4853 31.4227C26.4788 31.4366 26.47 31.4492 26.4592 31.46V31.4641C26.3842 31.5728 26.3055 31.6779 26.2265 31.779C26.2175 31.7977 26.2049 31.8143 26.1892 31.8279C26.1366 31.8994 26.0764 31.9703 26.0166 32.0377C25.9227 32.1505 25.8213 32.2592 25.7166 32.3644L25.7089 32.372C25.6287 32.4522 25.5512 32.5256 25.4682 32.6007C25.4345 32.6271 25.4008 32.6568 25.3671 32.6869C25.3069 32.7431 25.2431 32.792 25.1793 32.841C25.1625 32.8582 25.1436 32.8733 25.1232 32.8859C25.0632 32.9354 25.0006 32.9818 24.9358 33.0247C24.8957 33.058 24.8531 33.0881 24.8082 33.1146C24.8082 33.1182 24.8042 33.1182 24.8042 33.1182C24.5998 33.2547 24.3882 33.3801 24.1703 33.4937C24.0728 33.5423 23.9717 33.5912 23.8738 33.6362C23.8702 33.6362 23.8702 33.6398 23.8666 33.6398C23.7539 33.6887 23.6451 33.7337 23.5328 33.775C23.4205 33.8163 23.3001 33.8576 23.1801 33.8953C23.0602 33.933 22.9438 33.9628 22.8275 33.9928C22.7111 34.0229 22.5984 34.0454 22.4861 34.0678C22.4724 34.0685 22.4589 34.0711 22.4459 34.0755C22.3296 34.0943 22.2172 34.1128 22.1009 34.124C21.9846 34.1353 21.8569 34.1505 21.733 34.1581C21.6158 34.1669 21.4999 34.171 21.3795 34.171Z"
                fill="black" />
        </g>
        <path
            d="M21.3793 34.171H21.3645C21.2481 34.171 21.1281 34.167 21.0118 34.1598C20.8878 34.1521 20.7643 34.1409 20.6443 34.1257C20.5244 34.1104 20.4004 34.0919 20.2804 34.0731C20.2733 34.0702 20.2656 34.069 20.258 34.0695C20.1452 34.047 20.0325 34.0209 19.9202 33.9945C19.5612 33.9074 19.2109 33.7881 18.8734 33.6382C18.7611 33.5892 18.652 33.5331 18.5432 33.4805L18.5396 33.4769C18.4308 33.4207 18.3221 33.3565 18.2186 33.2932C18.1247 33.2366 18.0308 33.1804 17.941 33.1202C17.7214 32.9691 17.5109 32.8051 17.3107 32.6292C17.2132 32.5429 17.1229 32.4562 17.0331 32.3664C16.7577 32.0889 16.509 31.7861 16.2904 31.4621L16.1552 31.2615L16.1103 31.1936L14.7558 29.1904L14.7522 29.1868C14.7522 29.1828 14.7486 29.1828 14.7486 29.1792C14.7486 29.1756 14.7446 29.1756 14.7446 29.1716H14.741C14.7354 29.1645 14.7303 29.157 14.7258 29.1491L9.99151 22.13L9.43268 21.3012L1.51328 9.57033C0.823644 8.54939 0.457642 7.34437 0.46301 6.11235C0.468377 4.88029 0.84487 3.67849 1.54338 2.6636C1.56945 2.62629 1.59192 2.5962 1.61078 2.57373C2.15334 1.80839 2.86516 1.17854 3.69086 0.733184C4.51656 0.287836 5.43391 0.0389989 6.37149 0.00602722H6.96041C7.90272 0.063203 8.81923 0.336571 9.6389 0.804948C10.4586 1.27332 11.1594 1.92413 11.687 2.70693L16.3165 9.57234L16.4891 9.82751L18.8601 13.3388L19.2277 13.8865C19.2313 13.8949 19.2365 13.9025 19.2429 13.909L21.3737 17.064L21.3921 17.0901L26.4606 24.6007C27.137 25.6048 27.5018 26.7865 27.5089 27.9972C27.516 29.208 27.1653 30.3938 26.5007 31.4059C26.4855 31.4284 26.4706 31.4508 26.4606 31.4697C26.3855 31.5784 26.3069 31.6835 26.2279 31.7846C26.1605 31.8749 26.0931 31.9612 26.0181 32.0434C25.9242 32.1561 25.8227 32.2649 25.718 32.37L25.7103 32.3776C25.6016 32.4863 25.4889 32.5914 25.3689 32.6926C25.3087 32.7487 25.2449 32.7977 25.1812 32.8466C25.1643 32.8639 25.1454 32.879 25.1249 32.8915C25.065 32.9411 25.0025 32.9874 24.9376 33.0304C24.8954 33.0638 24.8515 33.095 24.806 33.1238C24.5086 33.3236 24.195 33.4981 23.8684 33.6454C23.7556 33.6944 23.6469 33.7393 23.5346 33.7806C23.4223 33.8219 23.3019 33.8633 23.1819 33.901C23.062 33.9387 22.9456 33.9684 22.8293 33.9985C22.7129 34.0286 22.6002 34.051 22.4878 34.0735C22.4742 34.0742 22.4607 34.0767 22.4477 34.0811C22.3314 34.1 22.219 34.1184 22.1027 34.1297C21.9863 34.1409 21.8587 34.1561 21.7348 34.1638C21.6156 34.167 21.4997 34.171 21.3793 34.171Z"
            fill="url(#paint1_linear_1_182)" />
        <g style="mix-blend-mode:multiply" opacity="0.1">
            <path
                d="M9.98993 22.1284L9.43105 21.2995L1.51169 9.56873C0.822057 8.54778 0.456055 7.34273 0.461423 6.11071C0.46679 4.87869 0.843271 3.67687 1.54178 2.66199C1.56785 2.62467 1.59033 2.59458 1.60919 2.57212C2.15175 1.80677 2.86357 1.17692 3.68928 0.73157C4.51497 0.286218 5.43233 0.0373814 6.3699 0.00440979H6.95883C7.90114 0.0615857 8.81765 0.334954 9.63731 0.80333C10.457 1.2717 11.1578 1.92251 11.6854 2.70532L16.3149 9.57073L16.4874 9.8259L18.8586 13.3372L10.1777 21.9399L9.98993 22.1284Z"
                fill="black" />
        </g>
        <path
            d="M9.43105 21.298L1.51169 9.5671C0.822057 8.54619 0.456055 7.34113 0.461423 6.10912C0.46679 4.8771 0.843271 3.67527 1.54178 2.66038C1.56785 2.62307 1.59033 2.59298 1.60919 2.57051C2.15175 1.80517 2.86357 1.17532 3.68928 0.729967C4.51497 0.284616 5.43233 0.0357792 6.3699 0.00280762H22.5236L16.4874 9.82351L10.8565 18.9806C10.8529 18.9846 10.853 18.9882 10.849 18.9918L9.58873 21.0404L9.43105 21.298Z"
            fill="url(#paint2_linear_1_182)" />
        <g style="mix-blend-mode:screen" opacity="0.6">
            <path
                d="M25.7086 32.374L26.0011 31.9876C26.1012 31.8645 26.194 31.7354 26.2787 31.6012L26.5227 31.192C26.603 31.0561 26.6733 30.9145 26.7329 30.7683C26.8036 30.6267 26.8637 30.48 26.9126 30.3294L27.0555 29.8829C27.1004 29.7328 27.1229 29.5792 27.1606 29.4251C27.1941 29.2744 27.2166 29.1214 27.228 28.9673C27.2482 28.8132 27.2595 28.6579 27.2617 28.5023C27.2617 28.3447 27.2729 28.191 27.2617 28.0369L27.228 27.5719L27.1566 27.1142C27.0988 26.81 27.0236 26.5094 26.9315 26.2139C26.883 26.0674 26.834 25.9214 26.7738 25.7786C26.7217 25.6438 26.6579 25.5049 26.5977 25.385C25.9558 24.4506 25.3138 23.5089 24.6884 22.5673C24.0581 21.6185 23.4278 20.6692 22.8123 19.7087C22.1969 18.7483 21.5818 17.7882 20.9852 16.8201C20.6815 16.3362 20.3891 15.8447 20.0962 15.3569C19.8073 14.8754 19.5184 14.394 19.2412 13.9053L26.4589 24.597C27.2549 25.7793 27.6153 27.2014 27.4784 28.6201C27.3416 30.0387 26.7159 31.3657 25.7086 32.374Z"
                fill="white" />
        </g>
        <g style="mix-blend-mode:screen" opacity="0.6">
            <path
                d="M31.6398 23.7831C32.0189 23.1303 32.4165 22.4923 32.8065 21.8508C33.1964 21.2093 33.5981 20.5605 33.9997 19.9226C34.8061 18.6436 35.6218 17.3706 36.447 16.1036C37.2651 14.8318 38.1092 13.5788 38.9417 12.3186C39.7842 11.0749 40.6224 9.82395 41.4741 8.58744L41.6206 8.12967C41.6691 7.96076 41.7329 7.79583 41.7706 7.62692L41.8794 7.11298C41.9207 6.94431 41.9476 6.77235 41.9596 6.59907L42.0045 6.07747C42.0121 5.90495 41.9973 5.73247 41.9933 5.55594L41.9897 5.29315L41.952 5.03795C41.9327 4.86398 41.9042 4.69119 41.8657 4.52043L41.7309 4.01371L41.5379 3.52462C41.4741 3.35932 41.3843 3.20567 41.3092 3.04799C41.2274 2.89211 41.1371 2.74064 41.0392 2.59422C40.9453 2.44056 40.829 2.30536 40.7279 2.16294C40.6152 2.02412 40.4988 1.88891 40.3752 1.75772C40.1309 1.49625 39.8622 1.25873 39.5728 1.04839C40.9217 1.95909 41.8537 3.3682 42.1638 4.96589C42.4739 6.56361 42.1369 8.2191 41.227 9.56839L31.6398 23.7831Z"
                fill="white" />
        </g>
        <g style="mix-blend-mode:screen" opacity="0.6">
            <path
                d="M10.8567 18.981C11.2956 18.1669 11.757 17.3641 12.2112 16.5577C12.4435 16.1565 12.6649 15.7473 12.9048 15.3497L13.6065 14.1461L15.0132 11.7416L16.4462 9.34806L17.8946 6.96972L19.3538 4.5986L20.8318 2.23511C21.2559 1.56349 21.6723 0.895891 22.1036 0.22909L18.6637 0.154061C17.4031 0.101503 16.1426 0.0714155 14.8784 0.00401306H22.5237L16.4876 9.82349L10.8567 18.981Z"
                fill="white" />
        </g>
        <g style="mix-blend-mode:multiply" opacity="0.3">
            <path
                d="M14.747 29.1776C14.743 29.1776 14.743 29.174 14.7394 29.17C14.7338 29.1629 14.7287 29.1554 14.7241 29.1475L9.98993 22.1284L9.43105 21.2996L1.51169 9.5687C0.822057 8.54779 0.456055 7.34274 0.461423 6.11072C0.46679 4.8787 0.843271 3.67687 1.54178 2.66198C1.56785 2.62467 1.59033 2.59458 1.60919 2.57211C1.62805 2.54965 1.64289 2.5344 1.65413 2.52316C1.40633 2.8828 1.20228 3.2707 1.0463 3.67864C0.861577 4.15007 0.736898 4.64287 0.675187 5.14546C0.59493 5.78991 0.625323 6.4434 0.765056 7.07766C0.920567 7.82723 1.19944 8.54579 1.59033 9.204C1.63526 9.28424 1.69183 9.39502 1.73276 9.45921L1.91691 9.7216C2.04049 9.89813 2.16446 10.0743 2.29204 10.2544C2.54319 10.6155 2.79836 10.9858 3.06115 11.3609C4.10428 12.8578 5.19915 14.4711 6.29484 16.0843C6.83887 16.8943 7.37809 17.7048 7.91169 18.5C8.44048 19.3024 8.96204 20.0871 9.46475 20.8522C9.50487 20.916 9.5474 20.9798 9.58873 21.04C9.78732 21.3437 9.98632 21.6417 10.1777 21.9402C10.9091 23.058 11.5843 24.1067 12.1809 25.0464C12.9685 26.2769 13.6028 27.32 14.0565 28.0402C14.4429 28.6821 14.6868 29.0793 14.743 29.1691C14.743 29.174 14.747 29.174 14.747 29.1776Z"
                fill="black" />
        </g>
        <g style="mix-blend-mode:multiply" opacity="0.3">
            <path
                d="M21.3973 17.0753C21.4121 17.0452 21.4647 16.9477 21.5473 16.7976L24.5636 12.3222L30.7574 3.14226C30.7008 3.24737 30.217 4.14766 29.4519 5.41186C29.0467 6.0911 28.5628 6.87148 28.0336 7.70398C27.7636 8.11682 27.4972 8.54647 27.2083 8.97977C26.9195 9.41307 26.6306 9.84637 26.3418 10.2853C25.7801 11.1142 25.2163 11.9359 24.6723 12.705C24.6462 12.7451 24.6161 12.7852 24.5897 12.8253C24.0196 13.6317 23.4796 14.3748 23.0065 15.0087C22.1259 16.1939 21.4775 16.9814 21.3973 17.0753Z"
                fill="black" />
        </g>
    </g>
    <defs>
        <linearGradient id="paint0_linear_1_182" x1="-319.798" y1="-91.8698" x2="-290.638"
            y2="-76.9109" gradientUnits="userSpaceOnUse">
            <stop stop-color="white" stop-opacity="0.25" />
            <stop offset="1" stop-color="white" />
        </linearGradient>
        <linearGradient id="paint1_linear_1_182" x1="-292.852" y1="-78.4367" x2="-308.001"
            y2="-66.939" gradientUnits="userSpaceOnUse">
            <stop stop-color="#939393" />
            <stop offset="1" stop-color="#F80300" />
        </linearGradient>
        <linearGradient id="paint2_linear_1_182" x1="-321.316" y1="-62.2003" x2="-300.004"
            y2="-62.2003" gradientUnits="userSpaceOnUse">
            <stop stop-color="#F77305" />
            <stop offset="1" stop-color="#EEA73C" />
        </linearGradient>
    </defs>
</svg>